<?xml version="1.0" encoding="UTF-8" standalone="no"?>
<!-- Created with Inkscape (http://www.inkscape.org/) -->

<svg
   xmlns:dc="http://purl.org/dc/elements/1.1/"
   xmlns:cc="http://creativecommons.org/ns#"
   xmlns:rdf="http://www.w3.org/1999/02/22-rdf-syntax-ns#"
   xmlns:svg="http://www.w3.org/2000/svg"
   xmlns="http://www.w3.org/2000/svg"
   xmlns:sodipodi="http://sodipodi.sourceforge.net/DTD/sodipodi-0.dtd"
   xmlns:inkscape="http://www.inkscape.org/namespaces/inkscape"
   width="3927"
   height="3145.8125"
   id="svg2"
   version="1.1"
   inkscape:version="0.48.3.1 r9886"
   sodipodi:docname="W_tex.svg">
  <sodipodi:namedview
     id="base"
     pagecolor="#002b36"
     bordercolor="#666666"
     borderopacity="1.0"
     inkscape:pageopacity="1"
     inkscape:pageshadow="2"
     inkscape:zoom="0.14900662"
     inkscape:cx="2094.2577"
     inkscape:cy="1517.0994"
     inkscape:document-units="px"
     inkscape:current-layer="layer3"
     showgrid="false"
     showborder="true"
     inkscape:object-nodes="true"
     inkscape:snap-smooth-nodes="true"
     inkscape:window-width="841"
     inkscape:window-height="749"
     inkscape:window-x="0"
     inkscape:window-y="17"
     inkscape:window-maximized="0"
     inkscape:snap-global="true"
     showguides="true"
     inkscape:guide-bbox="true"
     fit-margin-top="0"
     fit-margin-left="0"
     fit-margin-right="0"
     fit-margin-bottom="0" />
  <defs
     id="defs4" />
  <metadata
     id="metadata7">
    <rdf:RDF>
      <cc:Work
         rdf:about="">
        <dc:format>image/svg+xml</dc:format>
        <dc:type
           rdf:resource="http://purl.org/dc/dcmitype/StillImage" />
        <dc:title />
      </cc:Work>
    </rdf:RDF>
  </metadata>
  <g
     inkscape:label="W"
     id="layer2"
     inkscape:groupmode="layer"
     style="display:inline"
     sodipodi:insensitive="true"
     transform="translate(1666.9063,1160.5313)">
    <path
       sodipodi:nodetypes="ssscscscsccscsssscssssscscssscsscscssssssscsscssssccssscscscscscscsscscsccssssscsccsss"
       style="opacity:0.98000004;fill:#839496;fill-opacity:1;stroke:none"
       inkscape:connector-curvature="0"
       d="m -774.28571,106.8621 c 0,-117.6667 48.33333,-222.5 145,-314.5 96.66667,-92 213,-138 349,-138 136,0 250,50.6667 342,152 7.33333,8 13.66667,12 19,12 5.33333,0 10.66667,-4.6667 16,-14 52.66667,-100 112,-150 178,-150 68,0 129.3333,51.3333 184,154 5.3333,10 11.1667,15 17.5,15 6.3333,0 13.1667,-3.6667 20.5,-11 16.6667,-17.3333 34.3333,-34 53,-50 80.6667,-72 176,-108 286,-108 198.66671,0 328.33331,84.6667 389.00001,254 19.3333,54 42.6667,81 70,81 8,0 16.5,-2.5 25.5,-7.5 9,-5 17.5,-7.5 25.5,-7.5 16.6667,0 25,9.3333 25,28 0,10 -8,19.6667 -24,29 -122.6667,71.3333 -184,148 -184,230.00004 0,60 37.1667,123.33333 111.5,190 74.3333,66.66667 111.5,141.33333 111.5,224 0,100 -54.1667,207.5 -162.5,322.5 -108.3333,114.99996 -221.8333,172.49996 -340.50001,172.49996 -98.6667,0 -199.3333,-42 -302,-126 -26,-21.3333 -52.1667,-32 -78.5,-32 -26.3333,0 -52.8333,10 -79.5,30 -114,85.3334 -216.66667,128 -308,128 -120,0 -223,-58.1666 -309,-174.49996 -86,-116.33333 -165.33333,-174.5 -238,-174.5 -42,0 -82.33333,17 -121,51 -9.33333,8 -18.66667,12 -28,12 -17.33333,0 -26,-8.66667 -26,-26 0,-10 5.66667,-19.66667 17,-29 128.66667,-106 242.33333,-159 341,-159 51.33333,0 86,-8.33333 104,-25 84.66667,-79.33333 127,-185 127,-317 0,-137.33336 -38.83333,-248.66674 -116.5,-334.00004 -77.66667,-85.3333 -160.16667,-128 -247.5,-128 -87.33333,0 -158.83333,29.3333 -214.5,88 -55.66667,58.6667 -83.5,124.8333 -83.5,198.5 0,73.66669 22.66667,138.00004 68,193.00004 45.33333,55 107.66667,82.5 187,82.5 79.33333,0 139.66667,-18.33333 181,-55 11.33333,-10 21.33333,-15 30,-15 18.66667,0 28,9 28,27 0,8.66667 -5.66667,18 -17,28 -60,52.66667 -141.33333,79 -244,79 -102.66667,0 -182.83333,-34.83333 -240.5,-104.5 -57.66667,-69.66667 -86.5,-163.33335 -86.5,-281.00004 z m 672,591.00004 c 0,9 6.33333,17.83333 19,26.5 35.33333,24 72.33333,62 111,114 84,112.66667 171.33333,168.99996 262,168.99996 62,0 121.5,-25.49996 178.5,-76.49996 57,-51 85.5,-111.16667 85.5,-180.5 0,-90 -45.3333,-198.66667 -136,-326 -62.6667,-88 -94,-175.00001 -94,-261.00004 0,-84.6667 30,-169 90,-253 7.3333,-10 11,-19.6667 11,-29 0,-9.3333 -2.6667,-18.3333 -8,-27 -30.6667,-47.3333 -78,-71 -142,-71 -61.33333,0 -108,24.6667 -140,74 -6,10 -9,20.5 -9,31.5 0,11 2.66667,22.5 8,34.5 31.33333,74 47,163 47,267.00004 0,155.33333 -89.66667,315.66667 -269,481 -9.33333,8.66667 -14,17.5 -14,26.5 z m 622,-730.50004 c 0,86.6667 43,190.6667 129,312.00004 63.3333,88.66667 95,177.66667 95,267 0,70.66667 -21,143.66667 -63,219 -3.3333,6 -5,11.66667 -5,17 0,10.66667 7.3333,18.33333 22,23 23.3333,7.33333 46,20.33333 68,39 136.6667,111.33333 238.66671,166.99996 306.00001,166.99996 40,0 74.5,-14.83329 103.5,-44.49996 29,-29.66667 43.5,-62.83333 43.5,-99.5 0,-66.66667 -45.8333,-141.16667 -137.5,-223.5 -91.66671,-82.33333 -137.50001,-163.16667 -137.50001,-242.5 0,-83.33333 46.3333,-167.33335 139.00001,-252.00004 10.6667,-8.6667 15.8333,-16.8333 15.5,-24.5 -0.3333,-7.6667 -9.8333,-13.8333 -28.5,-18.5 -46,-12.6667 -79.33331,-47.3333 -100.00001,-104 -64,-175.3333 -140.3333,-263 -229,-263 -54.6667,0 -105.1667,21.3333 -151.5,64 -46.3333,42.6667 -69.5,97.3333 -69.5,164 z"
       id="path2989" />
  </g>
  <g
     style="display:inline"
     inkscape:label="Horizontale"
     id="layer3"
     inkscape:groupmode="layer"
     transform="translate(1666.9063,1160.5313)">
    <path
       style="color:#000000;fill:none;stroke:#dd7ed7;stroke-width:4.99999952;stroke-linecap:butt;stroke-linejoin:miter;stroke-miterlimit:4;stroke-opacity:1;stroke-dasharray:none;stroke-dashoffset:0;marker:none;visibility:visible;display:inline;overflow:visible;enable-background:accumulate"
       d="m -1135.7173,1170.375 2864.6222,0 m 0,-1516 -2864.6222,0"
       id="path9899"
       inkscape:connector-curvature="0"
       sodipodi:nodetypes="cccc" />
    <flowRoot
       xml:space="preserve"
       id="flowRoot9979"
       style="font-size:20px;font-style:normal;font-variant:normal;font-weight:normal;font-stretch:normal;text-align:center;line-height:125%;letter-spacing:0px;word-spacing:0px;text-anchor:middle;fill:#fdf6e3;fill-opacity:1;stroke:none;font-family:UnifrakturMaguntia;-inkscape-font-specification:UnifrakturMaguntia"
       transform="matrix(15.283706,0,0,15.283706,-1392.7632,4528.3165)"><flowRegion
         id="flowRegion9981"><rect
           id="rect9983"
           width="287.92307"
           height="266.7012"
           x="-33.555557"
           y="-364.81125"
           style="text-align:center;text-anchor:middle;fill:#fdf6e3;fill-opacity:1;font-family:UnifrakturMaguntia;-inkscape-font-specification:UnifrakturMaguntia" /></flowRegion><flowPara
         id="flowPara9985">\Huge Unifraktur Maguntia</flowPara></flowRoot>    <flowRoot
       transform="matrix(15.283706,0,0,15.283706,-1392.7632,7110.0261)"
       style="font-size:4.58004093px;font-style:normal;font-variant:normal;font-weight:normal;font-stretch:normal;text-align:center;line-height:125%;letter-spacing:0px;word-spacing:0px;text-anchor:middle;fill:#fdf6e3;fill-opacity:1;stroke:none;font-family:UnifrakturMaguntia;-inkscape-font-specification:UnifrakturMaguntia"
       id="flowRoot9987"
       xml:space="preserve"><flowRegion
         id="flowRegion9989"><rect
           style="font-size:4.58004093px;text-align:center;text-anchor:middle;fill:#fdf6e3;fill-opacity:1;font-family:UnifrakturMaguntia;-inkscape-font-specification:UnifrakturMaguntia"
           y="-364.81125"
           x="-33.555557"
           height="266.7012"
           width="287.92307"
           id="rect9991" /></flowRegion><flowPara
         id="flowPara9993">\dten{Gebrauchsanweiſung (mit allgemeinen Frakturſatzregeln)}{Manual (with General Rules for Typeſetting Fraktur)}</flowPara></flowRoot>    <flowRoot
       xml:space="preserve"
       id="flowRoot9997"
       style="font-size:4.58004093px;font-style:normal;font-variant:normal;font-weight:normal;font-stretch:normal;text-align:center;line-height:125%;letter-spacing:0px;word-spacing:0px;text-anchor:middle;fill:#fdf6e3;fill-opacity:1;stroke:none;font-family:UnifrakturMaguntia;-inkscape-font-specification:UnifrakturMaguntia"
       transform="matrix(15.283706,0,0,15.283706,-1392.7632,7330.7847)"><flowRegion
         id="flowRegion9999"><rect
           id="rect10001"
           width="287.92307"
           height="266.7012"
           x="-33.555557"
           y="-364.81125"
           style="font-size:4.58004093px;text-align:center;text-anchor:middle;fill:#fdf6e3;fill-opacity:1;font-family:UnifrakturMaguntia;-inkscape-font-specification:UnifrakturMaguntia" /></flowRegion><flowPara
         id="flowPara10003">\dten{Gerrit Ansmann}{Gerrit Ansmann}</flowPara></flowRoot>  </g>
  <g
     sodipodi:insensitive="true"
     style="display:inline"
     inkscape:label="Rüssel"
     id="layer4"
     inkscape:groupmode="layer"
     transform="translate(1666.9063,1160.5313)">
    <path
       sodipodi:nodetypes="cccccccccccccccccccccc"
       inkscape:connector-curvature="0"
       d="M 200.56039,362.81084 -412.56296,-310.83509 M -153.83722,731.87666 468.38094,158.02881 m -629.10001,243.39827 -62.66667,-71.33333 m 35.9147,-6.40605 -283.61724,249.1591 M -151.91164,368.18616 -503.1628,676.76198 m 81.09514,-99.9993 -404.8133,-489.051905 M -448.91398,676.44128 -976.11906,39.52879 m 657.4712,-350.20709 -507.49949,482.99951 M -198.0912,-618.01613 -979.69343,125.85355 M 458.42398,242.39873 -334.22374,-628.49285 m 537.20651,952.52728 -381.80861,352.12739"
       style="color:#000000;fill:none;stroke:#dfed5d;stroke-width:5;stroke-linecap:round;stroke-linejoin:miter;stroke-miterlimit:4;stroke-opacity:1;stroke-dasharray:none;stroke-dashoffset:0;marker:none;visibility:visible;display:inline;overflow:visible;enable-background:accumulate"
       id="path9309" />
  </g>
  <g
     style="display:inline"
     inkscape:label="Hauptschwung"
     id="layer5"
     inkscape:groupmode="layer"
     transform="translate(1666.9063,1160.5313)">
    <path
       inkscape:connector-curvature="0"
       id="path9343"
       d="M 101.39925,1395.837 -405.33914,710.39504"
       style="color:#000000;fill:none;stroke:#dfed5d;stroke-width:5;stroke-linecap:round;stroke-linejoin:miter;stroke-miterlimit:4;stroke-opacity:1;stroke-dasharray:none;stroke-dashoffset:0;marker:none;visibility:visible;display:inline;overflow:visible;enable-background:accumulate" />
    <path
       inkscape:connector-curvature="0"
       id="path9341"
       d="M 935.96754,585.28531 34.267716,1392.0693"
       style="color:#000000;fill:none;stroke:#dfed5d;stroke-width:5;stroke-linecap:round;stroke-linejoin:miter;stroke-miterlimit:4;stroke-opacity:1;stroke-dasharray:none;stroke-dashoffset:0;marker:none;visibility:visible;display:inline;overflow:visible;enable-background:accumulate" />
    <path
       inkscape:connector-curvature="0"
       id="path9339"
       d="M 677.75492,743.37841 215.37998,1157.0823"
       style="color:#000000;fill:none;stroke:#dfed5d;stroke-width:5;stroke-linecap:round;stroke-linejoin:miter;stroke-miterlimit:4;stroke-opacity:1;stroke-dasharray:none;stroke-dashoffset:0;marker:none;visibility:visible;display:inline;overflow:visible;enable-background:accumulate" />
    <path
       inkscape:connector-curvature="0"
       id="path9307"
       d="M -361.91406,704.74613 -602.43792,915.20296"
       style="color:#000000;fill:none;stroke:#dfed5d;stroke-width:5;stroke-linecap:round;stroke-linejoin:miter;stroke-miterlimit:4;stroke-opacity:1;stroke-dasharray:none;stroke-dashoffset:0;marker:none;visibility:visible;display:inline;overflow:visible;enable-background:accumulate" />
    <path
       inkscape:connector-curvature="0"
       id="path9305"
       d="M 674.09485,784.41527 126.75518,15.760341"
       style="color:#000000;fill:none;stroke:#dfed5d;stroke-width:5;stroke-linecap:round;stroke-linejoin:miter;stroke-miterlimit:4;stroke-opacity:1;stroke-dasharray:none;stroke-dashoffset:0;marker:none;visibility:visible;display:inline;overflow:visible;enable-background:accumulate" />
    <path
       inkscape:connector-curvature="0"
       id="path9303"
       d="M -234.99297,485.61201 264.02967,1155.4957"
       style="color:#000000;fill:none;stroke:#dfed5d;stroke-width:5;stroke-linecap:round;stroke-linejoin:miter;stroke-miterlimit:4;stroke-opacity:1;stroke-dasharray:none;stroke-dashoffset:0;marker:none;visibility:visible;display:inline;overflow:visible;enable-background:accumulate" />
    <path
       inkscape:connector-curvature="0"
       id="path9301"
       d="m -200.83517,489.12197 -438.1607,383.3878"
       style="color:#000000;fill:none;stroke:#dfed5d;stroke-width:5;stroke-linecap:round;stroke-linejoin:miter;stroke-miterlimit:4;stroke-opacity:1;stroke-dasharray:none;stroke-dashoffset:0;marker:none;visibility:visible;display:inline;overflow:visible;enable-background:accumulate" />
    <path
       inkscape:connector-curvature="0"
       id="path9299"
       d="m -562.00759,922.66035 -78.10056,-89.25843"
       style="color:#000000;fill:none;stroke:#dfed5d;stroke-width:5;stroke-linecap:round;stroke-linejoin:miter;stroke-miterlimit:4;stroke-opacity:1;stroke-dasharray:none;stroke-dashoffset:0;marker:none;visibility:visible;display:inline;overflow:visible;enable-background:accumulate" />
    <path
       inkscape:connector-curvature="0"
       id="path9297"
       d="M 133.71399,130.3621 1070.9963,-699.9814"
       style="color:#000000;fill:none;stroke:#dfed5d;stroke-width:5;stroke-linecap:round;stroke-linejoin:miter;stroke-miterlimit:4;stroke-opacity:1;stroke-dasharray:none;stroke-dashoffset:0;marker:none;visibility:visible;display:inline;overflow:visible;enable-background:accumulate" />
    <path
       inkscape:connector-curvature="0"
       id="path9295"
       d="M 842.46796,-421.25891 388.18497,-18.807156"
       style="color:#000000;fill:none;stroke:#dfed5d;stroke-width:5;stroke-linecap:round;stroke-linejoin:miter;stroke-miterlimit:4;stroke-opacity:1;stroke-dasharray:none;stroke-dashoffset:0;marker:none;visibility:visible;display:inline;overflow:visible;enable-background:accumulate" />
    <path
       inkscape:connector-curvature="0"
       id="path9293"
       d="M 1034.017,178.59839 813.97187,-424.35978"
       style="color:#000000;fill:none;stroke:#dfed5d;stroke-width:5;stroke-linecap:round;stroke-linejoin:miter;stroke-miterlimit:4;stroke-opacity:1;stroke-dasharray:none;stroke-dashoffset:0;marker:none;visibility:visible;display:inline;overflow:visible;enable-background:accumulate" />
    <path
       inkscape:connector-curvature="0"
       id="path9291"
       d="M 1272.6829,39.157252 999.004,-710.7658"
       style="color:#000000;fill:none;stroke:#dfed5d;stroke-width:5;stroke-linecap:round;stroke-linejoin:miter;stroke-miterlimit:4;stroke-opacity:1;stroke-dasharray:none;stroke-dashoffset:0;marker:none;visibility:visible;display:inline;overflow:visible;enable-background:accumulate" />
    <path
       inkscape:connector-curvature="0"
       id="path9268"
       d="M 919.12944,658.77597 400.31676,-69.817121"
       style="color:#000000;fill:none;stroke:#dfed5d;stroke-width:5;stroke-linecap:round;stroke-linejoin:miter;stroke-miterlimit:4;stroke-opacity:1;stroke-dasharray:none;stroke-dashoffset:0;marker:none;visibility:visible;display:inline;overflow:visible;enable-background:accumulate" />
  </g>
  <g
     sodipodi:insensitive="true"
     style="display:inline"
     inkscape:label="unten_rechts"
     id="layer6"
     inkscape:groupmode="layer"
     transform="translate(1666.9063,1160.5313)">
    <path
       id="path9289"
       d="M 997.70508,234.36566 1435.648,-20.398948"
       style="color:#000000;fill:none;stroke:#dfed5d;stroke-width:5;stroke-linecap:round;stroke-linejoin:miter;stroke-miterlimit:4;stroke-opacity:1;stroke-dasharray:none;stroke-dashoffset:0;marker:none;visibility:visible;display:inline;overflow:visible;enable-background:accumulate"
       inkscape:connector-curvature="0" />
    <path
       id="path9287"
       d="M 1404.9814,49.776396 1321.6758,-93.426662"
       style="color:#000000;fill:none;stroke:#dfed5d;stroke-width:5;stroke-linecap:round;stroke-linejoin:miter;stroke-miterlimit:4;stroke-opacity:1;stroke-dasharray:none;stroke-dashoffset:0;marker:none;visibility:visible;display:inline;overflow:visible;enable-background:accumulate"
       inkscape:connector-curvature="0" />
    <path
       id="path9285"
       d="m 1000.8267,206.17135 561.9717,504.01074"
       style="color:#000000;fill:none;stroke:#dfed5d;stroke-width:5;stroke-linecap:round;stroke-linejoin:miter;stroke-miterlimit:4;stroke-opacity:1;stroke-dasharray:none;stroke-dashoffset:0;marker:none;visibility:visible;display:inline;overflow:visible;enable-background:accumulate"
       inkscape:connector-curvature="0" />
    <path
       id="path9283"
       d="M 1548.2142,652.86218 898.2144,1342.8621"
       style="color:#000000;fill:none;stroke:#dfed5d;stroke-width:5;stroke-linecap:round;stroke-linejoin:miter;stroke-miterlimit:4;stroke-opacity:1;stroke-dasharray:none;stroke-dashoffset:0;marker:none;visibility:visible;display:inline;overflow:visible;enable-background:accumulate"
       inkscape:connector-curvature="0" />
    <path
       id="path9281"
       d="M 1330.0298,802.67665 1042.627,1107.7658"
       style="color:#000000;fill:none;stroke:#dfed5d;stroke-width:5;stroke-linecap:round;stroke-linejoin:miter;stroke-miterlimit:4;stroke-opacity:1;stroke-dasharray:none;stroke-dashoffset:0;marker:none;visibility:visible;display:inline;overflow:visible;enable-background:accumulate"
       inkscape:connector-curvature="0" />
    <path
       id="path9279"
       d="M 940.71439,1339.0287 477.60858,959.90602"
       style="color:#000000;fill:none;stroke:#dfed5d;stroke-width:5;stroke-linecap:round;stroke-linejoin:miter;stroke-miterlimit:4;stroke-opacity:1;stroke-dasharray:none;stroke-dashoffset:0;marker:none;visibility:visible;display:inline;overflow:visible;enable-background:accumulate"
       inkscape:connector-curvature="0" />
    <path
       id="path9277"
       d="M 674.93598,357.3625 1406.5459,-68.237134"
       style="color:#000000;fill:none;stroke:#dfed5d;stroke-width:5;stroke-linecap:round;stroke-linejoin:miter;stroke-miterlimit:4;stroke-opacity:1;stroke-dasharray:none;stroke-dashoffset:0;marker:none;visibility:visible;display:inline;overflow:visible;enable-background:accumulate"
       inkscape:connector-curvature="0" />
    <path
       id="path9275"
       d="M 682.48206,285.84124 1329.4855,866.11366"
       style="color:#000000;fill:none;stroke:#dfed5d;stroke-width:5;stroke-linecap:round;stroke-linejoin:miter;stroke-miterlimit:4;stroke-opacity:1;stroke-dasharray:none;stroke-dashoffset:0;marker:none;visibility:visible;display:inline;overflow:visible;enable-background:accumulate"
       inkscape:connector-curvature="0" />
    <path
       id="path9273"
       d="M 1088.1465,1108.0799 682.85055,776.28329"
       style="color:#000000;fill:none;stroke:#dfed5d;stroke-width:5;stroke-linecap:round;stroke-linejoin:miter;stroke-miterlimit:4;stroke-opacity:1;stroke-dasharray:none;stroke-dashoffset:0;marker:none;visibility:visible;display:inline;overflow:visible;enable-background:accumulate"
       inkscape:connector-curvature="0" />
  </g>
  <g
     sodipodi:insensitive="true"
     style="display:inline"
     inkscape:label="Brücke"
     id="layer7"
     inkscape:groupmode="layer"
     transform="translate(1666.9063,1160.5313)">
    <path
       inkscape:connector-curvature="0"
       id="path9333"
       d="m 280.71429,-369.9711 -190,296.6665"
       style="color:#000000;fill:none;stroke:#dfed5d;stroke-width:5;stroke-linecap:round;stroke-linejoin:miter;stroke-miterlimit:4;stroke-opacity:1;stroke-dasharray:none;stroke-dashoffset:0;marker:none;visibility:visible;display:inline;overflow:visible;enable-background:accumulate" />
    <path
       inkscape:connector-curvature="0"
       id="path9331"
       d="m 272.68267,-369.9711 166.99666,260.74903"
       style="color:#000000;fill:none;stroke:#dfed5d;stroke-width:5;stroke-linecap:round;stroke-linejoin:miter;stroke-miterlimit:4;stroke-opacity:1;stroke-dasharray:none;stroke-dashoffset:0;marker:none;visibility:visible;display:inline;overflow:visible;enable-background:accumulate" />
    <path
       inkscape:connector-curvature="0"
       id="path9329"
       d="M 59.430083,-125.57722 307.38097,-595.6379"
       style="color:#000000;fill:none;stroke:#dfed5d;stroke-width:5;stroke-linecap:round;stroke-linejoin:miter;stroke-miterlimit:4;stroke-opacity:1;stroke-dasharray:none;stroke-dashoffset:0;marker:none;visibility:visible;display:inline;overflow:visible;enable-background:accumulate" />
    <path
       inkscape:connector-curvature="0"
       id="path9327"
       d="m 240.04749,-602.3047 242.72934,455.84331"
       style="color:#000000;fill:none;stroke:#dfed5d;stroke-width:5;stroke-linecap:round;stroke-linejoin:miter;stroke-miterlimit:4;stroke-opacity:1;stroke-dasharray:none;stroke-dashoffset:0;marker:none;visibility:visible;display:inline;overflow:visible;enable-background:accumulate" />
  </g>
</svg>
